<?xml version="1.0" encoding="utf-8"?>
<!-- Generator: Adobe Illustrator 27.5.0, SVG Export Plug-In . SVG Version: 6.00 Build 0)  -->
<svg version="1.1" xmlns="http://www.w3.org/2000/svg" xmlns:xlink="http://www.w3.org/1999/xlink" x="0px" y="0px"
	 viewBox="0 0 500 500" style="enable-background:new 0 0 500 500;" xml:space="preserve">
<g id="Background_complete">
	<g>
		<path style="fill:#E0E0E0;" d="M153.304,438.928c2.641-8.894,2.78-18.517,0.397-27.484c-3.759,9.365-9.121,18.083-15.783,25.662
			c-1.315-12.216-3.546-24.334-6.67-36.217c-4.854,12.248-6.877,25.609-5.866,38.745c-7.387-7.278-15.381-13.94-23.872-19.893
			c0.738,11.294,7.416,26.035,22.283,34.386l23.699,0.069c13.126-3.534,22.991-16.684,22.713-30.275
			C166.442,430.609,160.391,435.982,153.304,438.928z"/>
	</g>
	<g>
		<path style="fill:#E0E0E0;" d="M416.809,443.138c1.913-6.441,2.013-13.41,0.288-19.904c-2.722,6.782-6.605,13.096-11.43,18.584
			c-0.952-8.847-2.568-17.623-4.83-26.229c-3.515,8.87-4.98,18.546-4.248,28.059c-5.35-5.271-11.139-10.095-17.288-14.407
			c0.534,8.179,5.37,18.855,16.137,24.902l17.163,0.05c9.506-2.56,16.65-12.083,16.449-21.925
			C426.324,437.114,421.941,441.005,416.809,443.138z"/>
	</g>
	<g>
		<g>
			<g>
				<g>
					<g>
						<path style="fill:#E0E0E0;" d="M443.92,321.419H263.174c-3.232,0-5.862-2.63-5.862-5.862V52.284
							c0-3.232,2.63-5.862,5.862-5.862H443.92c3.232,0,5.862,2.629,5.862,5.862v263.273
							C449.783,318.789,447.153,321.419,443.92,321.419z M263.174,46.672c-3.095,0-5.612,2.518-5.612,5.612v263.273
							c0,3.095,2.518,5.612,5.612,5.612H443.92c3.095,0,5.612-2.518,5.612-5.612V52.284c0-3.094-2.518-5.612-5.612-5.612H263.174z"
							/>
					</g>
				</g>
				<g>
					<g>
						<path style="fill:#E0E0E0;" d="M235.493,321.419H54.746c-3.232,0-5.862-2.63-5.862-5.862V52.284
							c0-3.232,2.629-5.862,5.862-5.862h180.747c3.232,0,5.862,2.629,5.862,5.862v263.273
							C241.355,318.789,238.725,321.419,235.493,321.419z M54.746,46.672c-3.094,0-5.612,2.518-5.612,5.612v263.273
							c0,3.095,2.518,5.612,5.612,5.612h180.747c3.095,0,5.612-2.518,5.612-5.612V52.284c0-3.094-2.518-5.612-5.612-5.612H54.746z"
							/>
					</g>
				</g>
			</g>
			<g>
				<g>
					<rect x="0" y="382.489" style="fill:#E0E0E0;" width="500" height="0.25"/>
				</g>
			</g>
		</g>
		<rect x="51.672" y="396.753" style="fill:#E0E0E0;" width="16.06" height="0.25"/>
		<rect x="170.352" y="394.043" style="fill:#E0E0E0;" width="53.53" height="0.25"/>
		<rect x="68.732" y="406.043" style="fill:#E0E0E0;" width="36.25" height="0.25"/>
		<rect x="378.352" y="393.913" style="fill:#E0E0E0;" width="43.19" height="0.25"/>
		<rect x="430.452" y="393.913" style="fill:#E0E0E0;" width="6.33" height="0.25"/>
		<rect x="316.212" y="400.143" style="fill:#E0E0E0;" width="53.89" height="0.25"/>
	</g>
	<g>
		<g id="freepik--background-complete--inject-481_00000003073544920505330140000013180267776658943650_">
			<g>
				<polygon style="fill:#F0F0F0;" points="58.459,247.725 58.459,200.682 87.587,200.682 87.587,211.41 107.002,211.41 
					107.002,93.896 144.332,93.896 144.332,140.149 155.532,140.149 155.532,117.052 184.66,117.052 184.66,229.691 
					225.731,229.691 225.731,189.895 251.484,189.895 251.484,103.609 283.267,103.609 283.267,161.133 313.138,161.133 
					313.138,285.056 336.282,285.056 336.282,224.711 360.181,224.711 360.181,185.882 385.568,185.882 385.568,156.07 
					413.893,171.011 413.893,250.77 443.764,250.77 443.764,234.318 483.667,234.318 483.667,382.451 19.205,382.675 
					19.205,247.725 				"/>
				<rect x="266.697" y="113.794" style="fill:#FAFAFA;" width="9.3" height="10.657"/>
				<rect x="266.697" y="131.663" style="fill:#FAFAFA;" width="9.3" height="10.657"/>
				<rect x="266.697" y="149.543" style="fill:#FAFAFA;" width="9.3" height="10.657"/>
				<rect x="266.697" y="167.412" style="fill:#FAFAFA;" width="9.3" height="10.657"/>
				<rect x="266.697" y="185.28" style="fill:#FAFAFA;" width="9.3" height="10.657"/>
				<rect x="266.697" y="203.16" style="fill:#FAFAFA;" width="9.3" height="10.657"/>
				<rect x="266.697" y="221.029" style="fill:#FAFAFA;" width="9.3" height="10.657"/>
				<rect x="266.697" y="238.909" style="fill:#FAFAFA;" width="9.3" height="10.657"/>
				<rect x="126.994" y="99.526" style="fill:#FAFAFA;" width="9.3" height="10.657"/>
				<rect x="126.994" y="117.394" style="fill:#FAFAFA;" width="9.3" height="10.657"/>
				<rect x="126.994" y="135.274" style="fill:#FAFAFA;" width="9.3" height="10.657"/>
				<rect x="126.994" y="153.143" style="fill:#FAFAFA;" width="9.3" height="10.657"/>
				<rect x="126.994" y="171.023" style="fill:#FAFAFA;" width="9.3" height="10.657"/>
				<rect x="126.994" y="188.891" style="fill:#FAFAFA;" width="9.3" height="10.658"/>
				<rect x="126.994" y="206.772" style="fill:#FAFAFA;" width="9.3" height="10.657"/>
				<rect x="126.994" y="224.64" style="fill:#FAFAFA;" width="9.3" height="10.657"/>
			</g>
			<g>
				<path style="fill:#E0E0E0;" d="M307.78,382.536V211.139h37v171.38L307.78,382.536z"/>
				<rect x="337.486" y="216.579" style="fill:#FAFAFA;" width="4.485" height="9.253"/>
				<rect x="328.516" y="216.579" style="fill:#FAFAFA;" width="4.485" height="9.253"/>
				<rect x="319.547" y="216.579" style="fill:#FAFAFA;" width="4.485" height="9.253"/>
				<rect x="310.577" y="216.579" style="fill:#FAFAFA;" width="4.485" height="9.253"/>
				<rect x="337.486" y="232.099" style="fill:#FAFAFA;" width="4.485" height="9.253"/>
				<rect x="328.516" y="232.099" style="fill:#FAFAFA;" width="4.485" height="9.253"/>
				<rect x="319.547" y="232.099" style="fill:#FAFAFA;" width="4.485" height="9.253"/>
				<rect x="310.577" y="232.099" style="fill:#FAFAFA;" width="4.485" height="9.253"/>
				<rect x="337.486" y="247.607" style="fill:#FAFAFA;" width="4.485" height="9.253"/>
				<rect x="328.516" y="247.607" style="fill:#FAFAFA;" width="4.485" height="9.253"/>
				<rect x="319.547" y="247.607" style="fill:#FAFAFA;" width="4.485" height="9.253"/>
				<rect x="310.577" y="247.607" style="fill:#FAFAFA;" width="4.485" height="9.253"/>
				<rect x="337.486" y="263.115" style="fill:#FAFAFA;" width="4.485" height="9.253"/>
				<rect x="328.516" y="263.115" style="fill:#FAFAFA;" width="4.485" height="9.253"/>
				<rect x="319.547" y="263.115" style="fill:#FAFAFA;" width="4.485" height="9.253"/>
				<rect x="310.577" y="263.115" style="fill:#FAFAFA;" width="4.485" height="9.253"/>
				<rect x="337.486" y="278.623" style="fill:#FAFAFA;" width="4.485" height="9.253"/>
				<rect x="328.516" y="278.623" style="fill:#FAFAFA;" width="4.485" height="9.253"/>
				<rect x="319.547" y="278.623" style="fill:#FAFAFA;" width="4.485" height="9.253"/>
				<rect x="310.577" y="278.623" style="fill:#FAFAFA;" width="4.485" height="9.253"/>
				<rect x="337.486" y="294.131" style="fill:#FAFAFA;" width="4.485" height="9.253"/>
				<rect x="328.516" y="294.131" style="fill:#FAFAFA;" width="4.485" height="9.253"/>
				<rect x="319.547" y="294.131" style="fill:#FAFAFA;" width="4.485" height="9.253"/>
				<rect x="310.577" y="294.131" style="fill:#FAFAFA;" width="4.485" height="9.253"/>
				<rect x="337.486" y="309.639" style="fill:#FAFAFA;" width="4.485" height="9.253"/>
				<rect x="328.516" y="309.639" style="fill:#FAFAFA;" width="4.485" height="9.253"/>
				<rect x="319.547" y="309.639" style="fill:#FAFAFA;" width="4.485" height="9.253"/>
				<rect x="310.577" y="309.639" style="fill:#FAFAFA;" width="4.485" height="9.253"/>
				<rect x="337.486" y="325.159" style="fill:#FAFAFA;" width="4.485" height="9.253"/>
				<rect x="328.516" y="325.159" style="fill:#FAFAFA;" width="4.485" height="9.253"/>
				<rect x="319.547" y="325.159" style="fill:#FAFAFA;" width="4.485" height="9.253"/>
				<rect x="310.577" y="325.159" style="fill:#FAFAFA;" width="4.485" height="9.253"/>
			</g>
			<g>
				<path style="fill:#E6E6E6;" d="M179.207,382.598v-191.24h76.714v191.294C255.921,382.652,179.795,382.675,179.207,382.598z"/>
				<rect x="240.862" y="197.684" style="fill:#E0E0E0;" width="9.3" height="10.657"/>
				<rect x="222.25" y="197.684" style="fill:#E0E0E0;" width="9.3" height="10.657"/>
				<rect x="203.65" y="197.684" style="fill:#E0E0E0;" width="9.3" height="10.657"/>
				<rect x="185.037" y="197.684" style="fill:#E0E0E0;" width="9.3" height="10.657"/>
				<rect x="240.862" y="215.564" style="fill:#E0E0E0;" width="9.3" height="10.657"/>
				<rect x="222.25" y="215.564" style="fill:#E0E0E0;" width="9.3" height="10.657"/>
				<rect x="203.65" y="215.564" style="fill:#E0E0E0;" width="9.3" height="10.657"/>
				<rect x="185.037" y="215.564" style="fill:#E0E0E0;" width="9.3" height="10.657"/>
				<rect x="240.862" y="233.433" style="fill:#E0E0E0;" width="9.3" height="10.657"/>
				<rect x="222.25" y="233.433" style="fill:#E0E0E0;" width="9.3" height="10.657"/>
				<rect x="203.65" y="233.433" style="fill:#E0E0E0;" width="9.3" height="10.657"/>
				<rect x="185.037" y="233.433" style="fill:#E0E0E0;" width="9.3" height="10.657"/>
				<rect x="240.862" y="251.301" style="fill:#E0E0E0;" width="9.3" height="10.657"/>
				<rect x="222.25" y="251.301" style="fill:#E0E0E0;" width="9.3" height="10.657"/>
				<rect x="203.65" y="251.301" style="fill:#E0E0E0;" width="9.3" height="10.657"/>
				<rect x="185.037" y="251.301" style="fill:#E0E0E0;" width="9.3" height="10.657"/>
				<rect x="240.862" y="269.182" style="fill:#E0E0E0;" width="9.3" height="10.657"/>
				<rect x="222.25" y="269.182" style="fill:#E0E0E0;" width="9.3" height="10.657"/>
				<rect x="203.65" y="269.182" style="fill:#E0E0E0;" width="9.3" height="10.657"/>
				<rect x="185.037" y="269.182" style="fill:#E0E0E0;" width="9.3" height="10.657"/>
				<rect x="240.862" y="287.05" style="fill:#E0E0E0;" width="9.3" height="10.657"/>
				<rect x="222.25" y="287.05" style="fill:#E0E0E0;" width="9.3" height="10.657"/>
				<rect x="203.65" y="287.05" style="fill:#E0E0E0;" width="9.3" height="10.657"/>
				<rect x="185.037" y="287.05" style="fill:#E0E0E0;" width="9.3" height="10.657"/>
				<rect x="240.862" y="304.93" style="fill:#E0E0E0;" width="9.3" height="10.658"/>
				<rect x="222.25" y="304.93" style="fill:#E0E0E0;" width="9.3" height="10.658"/>
				<rect x="203.65" y="304.93" style="fill:#E0E0E0;" width="9.3" height="10.658"/>
				<rect x="185.037" y="304.93" style="fill:#E0E0E0;" width="9.3" height="10.658"/>
				<rect x="240.862" y="322.799" style="fill:#E0E0E0;" width="9.3" height="10.657"/>
				<rect x="222.25" y="322.799" style="fill:#E0E0E0;" width="9.3" height="10.657"/>
				<rect x="203.65" y="322.799" style="fill:#E0E0E0;" width="9.3" height="10.657"/>
				<rect x="185.037" y="322.799" style="fill:#E0E0E0;" width="9.3" height="10.657"/>
			</g>
			<g>
				<path style="fill:#E6E6E6;" d="M358.234,382.512V177.986h31.736v204.689C379.926,382.427,358.234,382.512,358.234,382.512z"/>
				<rect x="375.973" y="181.775" style="fill:#FAFAFA;" width="9.3" height="10.657"/>
				<rect x="375.973" y="199.643" style="fill:#FAFAFA;" width="9.3" height="10.657"/>
				<rect x="375.973" y="217.523" style="fill:#FAFAFA;" width="9.3" height="10.657"/>
				<rect x="375.973" y="235.392" style="fill:#FAFAFA;" width="9.3" height="10.657"/>
				<rect x="375.973" y="253.26" style="fill:#FAFAFA;" width="9.3" height="10.657"/>
				<rect x="375.973" y="271.141" style="fill:#FAFAFA;" width="9.3" height="10.657"/>
				<rect x="375.973" y="289.009" style="fill:#FAFAFA;" width="9.3" height="10.657"/>
				<rect x="375.973" y="306.889" style="fill:#FAFAFA;" width="9.3" height="10.657"/>
				<rect x="363.533" y="181.775" style="fill:#FAFAFA;" width="9.3" height="10.657"/>
				<rect x="363.533" y="199.643" style="fill:#FAFAFA;" width="9.3" height="10.657"/>
				<rect x="363.533" y="217.523" style="fill:#FAFAFA;" width="9.3" height="10.657"/>
				<rect x="363.533" y="235.392" style="fill:#FAFAFA;" width="9.3" height="10.657"/>
				<rect x="363.533" y="253.26" style="fill:#FAFAFA;" width="9.3" height="10.657"/>
				<rect x="363.533" y="271.141" style="fill:#FAFAFA;" width="9.3" height="10.657"/>
				<rect x="363.533" y="289.009" style="fill:#FAFAFA;" width="9.3" height="10.657"/>
				<rect x="363.533" y="306.889" style="fill:#FAFAFA;" width="9.3" height="10.657"/>
			</g>
			<g>
				<rect x="54.259" y="181.633" style="fill:#E6E6E6;" width="56.013" height="201.042"/>
				<rect x="85.57" y="189.942" style="fill:#FAFAFA;" width="16.417" height="10.657"/>
				<rect x="85.57" y="207.822" style="fill:#FAFAFA;" width="16.417" height="10.657"/>
				<rect x="85.57" y="225.691" style="fill:#FAFAFA;" width="16.417" height="10.657"/>
				<rect x="85.57" y="243.571" style="fill:#FAFAFA;" width="16.417" height="10.657"/>
				<rect x="85.57" y="261.439" style="fill:#FAFAFA;" width="16.417" height="10.657"/>
				<rect x="85.57" y="279.308" style="fill:#FAFAFA;" width="16.417" height="10.658"/>
				<rect x="85.57" y="297.188" style="fill:#FAFAFA;" width="16.417" height="10.657"/>
				<rect x="85.57" y="315.057" style="fill:#FAFAFA;" width="16.417" height="10.657"/>
				<rect x="63.607" y="189.942" style="fill:#FAFAFA;" width="16.417" height="10.657"/>
				<rect x="63.607" y="207.822" style="fill:#FAFAFA;" width="16.417" height="10.657"/>
				<rect x="63.607" y="225.691" style="fill:#FAFAFA;" width="16.417" height="10.657"/>
				<rect x="63.607" y="243.571" style="fill:#FAFAFA;" width="16.417" height="10.657"/>
				<rect x="63.607" y="261.439" style="fill:#FAFAFA;" width="16.417" height="10.657"/>
				<rect x="63.607" y="279.308" style="fill:#FAFAFA;" width="16.417" height="10.658"/>
				<rect x="63.607" y="297.188" style="fill:#FAFAFA;" width="16.417" height="10.657"/>
				<rect x="63.607" y="315.057" style="fill:#FAFAFA;" width="16.417" height="10.657"/>
			</g>
			<g>
				<path style="fill:#E0E0E0;" d="M146.917,382.614V233.433h24.43v149.169L146.917,382.614z"/>
				<rect x="166.532" y="238.154" style="fill:#FAFAFA;" width="2.962" height="7.943"/>
				<rect x="160.607" y="238.154" style="fill:#FAFAFA;" width="2.962" height="7.943"/>
				<rect x="154.694" y="238.154" style="fill:#FAFAFA;" width="2.962" height="7.943"/>
				<rect x="148.77" y="238.154" style="fill:#FAFAFA;" width="2.962" height="7.943"/>
				<rect x="166.532" y="251.478" style="fill:#FAFAFA;" width="2.962" height="7.943"/>
				<rect x="160.607" y="251.478" style="fill:#FAFAFA;" width="2.962" height="7.943"/>
				<rect x="154.694" y="251.478" style="fill:#FAFAFA;" width="2.962" height="7.943"/>
				<rect x="148.77" y="251.478" style="fill:#FAFAFA;" width="2.962" height="7.943"/>
				<rect x="166.532" y="264.803" style="fill:#FAFAFA;" width="2.962" height="7.943"/>
				<rect x="160.607" y="264.803" style="fill:#FAFAFA;" width="2.962" height="7.943"/>
				<rect x="154.694" y="264.803" style="fill:#FAFAFA;" width="2.962" height="7.943"/>
				<rect x="148.77" y="264.803" style="fill:#FAFAFA;" width="2.962" height="7.943"/>
				<rect x="166.532" y="278.128" style="fill:#FAFAFA;" width="2.962" height="7.943"/>
				<rect x="160.607" y="278.128" style="fill:#FAFAFA;" width="2.962" height="7.943"/>
				<rect x="154.694" y="278.128" style="fill:#FAFAFA;" width="2.962" height="7.943"/>
				<rect x="148.77" y="278.128" style="fill:#FAFAFA;" width="2.962" height="7.943"/>
				<rect x="166.532" y="291.464" style="fill:#FAFAFA;" width="2.962" height="7.943"/>
				<rect x="160.607" y="291.464" style="fill:#FAFAFA;" width="2.962" height="7.943"/>
				<rect x="154.694" y="291.464" style="fill:#FAFAFA;" width="2.962" height="7.943"/>
				<rect x="148.77" y="291.464" style="fill:#FAFAFA;" width="2.962" height="7.943"/>
				<rect x="166.532" y="304.789" style="fill:#FAFAFA;" width="2.962" height="7.943"/>
				<rect x="160.607" y="304.789" style="fill:#FAFAFA;" width="2.962" height="7.943"/>
				<rect x="154.694" y="304.789" style="fill:#FAFAFA;" width="2.962" height="7.943"/>
				<rect x="148.77" y="304.789" style="fill:#FAFAFA;" width="2.962" height="7.943"/>
				<rect x="166.532" y="318.113" style="fill:#FAFAFA;" width="2.962" height="7.943"/>
				<rect x="160.607" y="318.113" style="fill:#FAFAFA;" width="2.962" height="7.943"/>
				<rect x="154.694" y="318.113" style="fill:#FAFAFA;" width="2.962" height="7.943"/>
				<rect x="148.77" y="318.113" style="fill:#FAFAFA;" width="2.962" height="7.943"/>
				<rect x="166.532" y="331.438" style="fill:#FAFAFA;" width="2.962" height="7.943"/>
				<rect x="160.607" y="331.438" style="fill:#FAFAFA;" width="2.962" height="7.943"/>
				<rect x="154.694" y="331.438" style="fill:#FAFAFA;" width="2.962" height="7.943"/>
				<rect x="148.77" y="331.438" style="fill:#FAFAFA;" width="2.962" height="7.943"/>
			</g>
			<g>
				<path style="fill:#FAFAFA;" d="M387.138,382.675V255.55h65.313v126.916L387.138,382.675z"/>
				<rect x="439.586" y="259.504" style="fill:#E0E0E0;" width="7.919" height="6.668"/>
				<rect x="423.748" y="259.504" style="fill:#E0E0E0;" width="7.919" height="6.668"/>
				<rect x="407.921" y="259.504" style="fill:#E0E0E0;" width="7.919" height="6.668"/>
				<rect x="392.083" y="259.504" style="fill:#E0E0E0;" width="7.919" height="6.668"/>
				<rect x="439.586" y="270.681" style="fill:#E0E0E0;" width="7.919" height="6.668"/>
				<rect x="423.748" y="270.681" style="fill:#E0E0E0;" width="7.919" height="6.668"/>
				<rect x="407.921" y="270.681" style="fill:#E0E0E0;" width="7.919" height="6.668"/>
				<rect x="392.083" y="270.681" style="fill:#E0E0E0;" width="7.919" height="6.668"/>
				<rect x="439.586" y="281.857" style="fill:#E0E0E0;" width="7.919" height="6.668"/>
				<rect x="423.748" y="281.857" style="fill:#E0E0E0;" width="7.919" height="6.668"/>
				<rect x="407.921" y="281.857" style="fill:#E0E0E0;" width="7.919" height="6.668"/>
				<rect x="392.083" y="281.857" style="fill:#E0E0E0;" width="7.919" height="6.668"/>
				<rect x="439.586" y="293.034" style="fill:#E0E0E0;" width="7.919" height="6.668"/>
				<rect x="423.748" y="293.034" style="fill:#E0E0E0;" width="7.919" height="6.668"/>
				<rect x="407.921" y="293.034" style="fill:#E0E0E0;" width="7.919" height="6.668"/>
				<rect x="392.083" y="293.034" style="fill:#E0E0E0;" width="7.919" height="6.668"/>
				<rect x="439.586" y="304.199" style="fill:#E0E0E0;" width="7.919" height="6.668"/>
				<rect x="423.748" y="304.199" style="fill:#E0E0E0;" width="7.919" height="6.668"/>
				<rect x="407.921" y="304.199" style="fill:#E0E0E0;" width="7.919" height="6.668"/>
				<rect x="392.083" y="304.199" style="fill:#E0E0E0;" width="7.919" height="6.668"/>
				<rect x="439.586" y="315.375" style="fill:#E0E0E0;" width="7.919" height="6.668"/>
				<rect x="423.748" y="315.375" style="fill:#E0E0E0;" width="7.919" height="6.668"/>
				<rect x="407.921" y="315.375" style="fill:#E0E0E0;" width="7.919" height="6.668"/>
				<rect x="392.083" y="315.375" style="fill:#E0E0E0;" width="7.919" height="6.668"/>
				<rect x="439.586" y="326.552" style="fill:#E0E0E0;" width="7.919" height="6.668"/>
				<rect x="423.748" y="326.552" style="fill:#E0E0E0;" width="7.919" height="6.668"/>
				<rect x="407.921" y="326.552" style="fill:#E0E0E0;" width="7.919" height="6.668"/>
				<rect x="392.083" y="326.552" style="fill:#E0E0E0;" width="7.919" height="6.668"/>
			</g>
		</g>
		<g>
			<g>
				<path style="fill:#E0E0E0;" d="M302.94,86.969c2.075-1.568,5.103-1.746,7.348-0.431c2.979-6.02,11.281-8.677,17.202-5.505
					c1.545-6.487,7.936-11.473,14.604-11.393c6.668,0.08,12.938,5.219,14.326,11.741c0.22,1.036,0.367,2.172,1.108,2.929
					c1.204,1.23,3.215,0.817,4.932,0.683c5.4-0.421,10.834,3.37,12.302,8.584l-74.366-0.271
					C299.744,90.789,300.865,88.537,302.94,86.969z"/>
			</g>
		</g>
		<g>
			<g>
				<path style="fill:#F5F5F5;" d="M216.439,31.501c1.027-0.776,2.524-0.864,3.635-0.213c1.474-2.978,5.58-4.292,8.509-2.723
					c0.764-3.209,3.926-5.675,7.224-5.636c3.299,0.04,6.4,2.581,7.087,5.808c0.109,0.513,0.181,1.074,0.548,1.449
					c0.596,0.608,1.59,0.404,2.439,0.338c2.671-0.208,5.359,1.667,6.085,4.246l-36.786-0.134
					C214.858,33.391,215.412,32.277,216.439,31.501z"/>
			</g>
		</g>
		<g>
			<g>
				<path style="fill:#E0E0E0;" d="M402.103,43.947c1.099-0.83,2.702-0.924,3.891-0.228c1.577-3.188,5.974-4.595,9.109-2.915
					c0.818-3.435,4.202-6.076,7.733-6.033c3.531,0.042,6.851,2.764,7.586,6.217c0.117,0.549,0.194,1.15,0.587,1.551
					c0.638,0.652,1.703,0.433,2.611,0.362c2.86-0.223,5.737,1.785,6.515,4.545l-39.38-0.143
					C400.41,45.97,401.004,44.777,402.103,43.947z"/>
			</g>
		</g>
		<g>
			<g>
				<path style="fill:#F5F5F5;" d="M27.751,135.343c1.425-1.076,3.503-1.198,5.044-0.296c2.045-4.133,7.744-5.956,11.809-3.779
					c1.06-4.453,5.448-7.876,10.025-7.821c4.577,0.055,8.882,3.582,9.834,8.06c0.151,0.712,0.252,1.491,0.76,2.011
					c0.827,0.845,2.207,0.561,3.386,0.469c3.707-0.289,7.437,2.313,8.445,5.892l-51.05-0.186
					C25.556,137.965,26.326,136.419,27.751,135.343z"/>
			</g>
		</g>
		<g>
			<g>
				<path style="fill:#F0F0F0;" d="M387.16,129.217c2.16-1.632,5.313-1.817,7.649-0.449c3.101-6.267,11.743-9.033,17.907-5.731
					c1.608-6.753,8.261-11.943,15.203-11.86c6.941,0.084,13.468,5.433,14.913,12.222c0.229,1.079,0.382,2.261,1.153,3.049
					c1.254,1.281,3.347,0.851,5.134,0.712c5.621-0.438,11.277,3.508,12.806,8.935l-77.413-0.282
					C383.833,133.193,385,130.849,387.16,129.217z"/>
			</g>
		</g>
		<g>
			<g>
				<path style="fill:#E0E0E0;" d="M66.185,55.319c1.918-1.449,4.717-1.613,6.791-0.398c2.753-5.564,10.426-8.019,15.898-5.088
					c1.428-5.996,7.335-10.604,13.497-10.53c6.163,0.074,11.957,4.823,13.24,10.852c0.204,0.958,0.339,2.007,1.024,2.707
					c1.113,1.137,2.972,0.755,4.558,0.632c4.991-0.389,10.013,3.115,11.37,7.933l-68.731-0.25
					C63.231,58.849,64.267,56.768,66.185,55.319z"/>
			</g>
		</g>
	</g>
</g>
<g id="Background_simple" style="display:none;">
	<g style="display:inline;">
		<path style="fill:#407BFF;" d="M185.766,59.571c-21.564,2.847-42.358,8.907-60.801,18.414
			c-21.737,11.204-43.946,28.659-37.386,51.49c12.11,42.149,70.206,42.917,58.607,71.257c-13.139,32.102-4.328,69.757,54.63,80.228
			c111.982,19.889,247.351-96.484,209.331-160.43C386.477,80.719,300.266,44.457,185.766,59.571z"/>
		<path style="opacity:0.9;fill:#FFFFFF;" d="M185.766,59.571c-21.564,2.847-42.358,8.907-60.801,18.414
			c-21.737,11.204-43.946,28.659-37.386,51.49c12.11,42.149,70.206,42.917,58.607,71.257c-13.139,32.102-4.328,69.757,54.63,80.228
			c111.982,19.889,247.351-96.484,209.331-160.43C386.477,80.719,300.266,44.457,185.766,59.571z"/>
	</g>
</g>
<g id="Shadow">
	<g>
		<g>
			<ellipse style="fill:#F5F5F5;" cx="250" cy="460.493" rx="208.875" ry="8.232"/>
		</g>
	</g>
</g>
<g id="Sing_2">
	<g>
		<g>
			<rect x="365.662" y="210.95" style="fill:#263238;" width="12.429" height="242.467"/>
			<rect x="365.662" y="210.95" style="opacity:0.5;fill:#FFFFFF;enable-background:new    ;" width="12.429" height="242.467"/>
		</g>
		<rect x="365.662" y="214.631" style="opacity:0.3;" width="12.429" height="8.631"/>
		<g>
			<path style="fill:#407BFF;" d="M314.118,217.889l112.051,0.072c0.141,0,0.274-0.053,0.362-0.145l17.982-19.548
				c0.135-0.141,0.191-3.664,0.056-3.805l-18.78-16.152c-0.088-0.091-0.221-0.145-0.362-0.145H314.118
				c-0.256,0-0.463,0.173-0.463,0.386v38.95C313.654,217.716,313.862,217.889,314.118,217.889z"/>
			<path style="opacity:0.3;" d="M314.118,217.889l112.051,0.072c0.141,0,0.274-0.053,0.362-0.145l17.982-19.548
				c0.135-0.141,0.191-3.664,0.056-3.805l-18.78-16.152c-0.088-0.091-0.221-0.145-0.362-0.145H314.118
				c-0.256,0-0.463,0.173-0.463,0.386v38.95C313.654,217.716,313.862,217.889,314.118,217.889z"/>
			<path style="fill:#407BFF;" d="M314.118,214.998h111.309c0.141,0,0.274-0.055,0.362-0.149l18.724-20.023
				c0.135-0.145,0.135-0.351,0-0.496l-18.724-20.023c-0.088-0.094-0.221-0.149-0.362-0.149H314.118
				c-0.256,0-0.463,0.178-0.463,0.396v40.046C313.654,214.821,313.862,214.998,314.118,214.998z"/>
			<g>
				<g>
					<path style="fill:#263238;" d="M320.568,178.801c0,0.86-0.697,1.558-1.557,1.558s-1.557-0.697-1.557-1.558
						s0.697-1.558,1.557-1.558S320.568,177.941,320.568,178.801z"/>
					<path style="opacity:0.5;fill:#FFFFFF;enable-background:new    ;" d="M320.568,178.801c0,0.86-0.697,1.558-1.557,1.558
						s-1.557-0.697-1.557-1.558s0.697-1.558,1.557-1.558S320.568,177.941,320.568,178.801z"/>
				</g>
				<g>
					<path style="fill:#263238;" d="M320.568,209.623c0,0.86-0.697,1.557-1.557,1.557s-1.557-0.697-1.557-1.557
						s0.697-1.558,1.557-1.558S320.568,208.763,320.568,209.623z"/>
					<path style="opacity:0.5;fill:#FFFFFF;enable-background:new    ;" d="M320.568,209.623c0,0.86-0.697,1.557-1.557,1.557
						s-1.557-0.697-1.557-1.557s0.697-1.558,1.557-1.558S320.568,208.763,320.568,209.623z"/>
				</g>
			</g>
			<g>
				<g>
					<path style="fill:#263238;" d="M424.679,178.801c0,0.86-0.697,1.558-1.557,1.558c-0.86,0-1.558-0.697-1.558-1.558
						s0.697-1.558,1.558-1.558C423.982,177.243,424.679,177.941,424.679,178.801z"/>
					<path style="opacity:0.5;fill:#FFFFFF;enable-background:new    ;" d="M424.679,178.801c0,0.86-0.697,1.558-1.557,1.558
						c-0.86,0-1.558-0.697-1.558-1.558s0.697-1.558,1.558-1.558C423.982,177.243,424.679,177.941,424.679,178.801z"/>
				</g>
				<g>
					<path style="fill:#263238;" d="M424.679,209.623c0,0.86-0.697,1.557-1.557,1.557c-0.86,0-1.558-0.697-1.558-1.557
						s0.697-1.558,1.558-1.558C423.982,208.065,424.679,208.763,424.679,209.623z"/>
					<path style="opacity:0.5;fill:#FFFFFF;enable-background:new    ;" d="M424.679,209.623c0,0.86-0.697,1.557-1.557,1.557
						c-0.86,0-1.558-0.697-1.558-1.557s0.697-1.558,1.558-1.558C423.982,208.065,424.679,208.763,424.679,209.623z"/>
				</g>
			</g>
			<g>
				<path style="fill:#FFFFFF;" d="M349.752,191.923h-4.204v-3.753h13.248v3.753h-4.204v10.602h-4.84V191.923z"/>
				<path style="fill:#FFFFFF;" d="M366.195,198.916h-1.313v3.609h-4.84V188.17h6.911c3.999,0,6.542,2.092,6.542,5.414
					c0,2.071-0.984,3.63-2.707,4.512l3.015,4.43h-5.168L366.195,198.916z M366.646,191.902h-1.764v3.363h1.764
					c1.333,0,1.969-0.636,1.969-1.682S367.979,191.902,366.646,191.902z"/>
				<path style="fill:#FFFFFF;" d="M375.193,196.065v-7.896h4.84v7.752c0,2.194,0.841,3.015,2.194,3.015
					c1.353,0,2.194-0.82,2.194-3.015v-7.752h4.758v7.896c0,4.307-2.584,6.788-6.993,6.788
					C377.777,202.853,375.193,200.372,375.193,196.065z"/>
				<path style="fill:#FFFFFF;" d="M403.324,198.875v3.65h-11.936V188.17h11.669v3.65h-6.911v1.682h6.07v3.486h-6.07v1.887H403.324z
					"/>
			</g>
		</g>
		<path style="opacity:0.2;fill:#FFFFFF;" d="M394.677,174.162c0,0-10.109,5.197-20.352,11.418
			c-8.238,5.003-25.66,17.412-18.508,22.527c7.153,5.115,8.915,6.962,8.493,6.943c-0.423-0.019-13.811,0-13.811,0
			s-4.952-8.487,0-15.336c4.952-6.849,15.591-13.053,17.24-19.355c1.649-6.303-3.428-6.344-3.428-6.344L394.677,174.162z"/>
		<g>
			<polygon style="opacity:0.2;fill:#FFFFFF;" points="378.091,271.716 365.662,288.41 365.662,303.286 378.091,286.673 			"/>
			<polygon style="opacity:0.2;fill:#FFFFFF;" points="378.091,300.215 365.662,316.91 365.662,322.477 378.091,306.344 			"/>
		</g>
		<path style="fill:none;stroke:#407BFF;stroke-linecap:round;stroke-linejoin:round;stroke-miterlimit:10;" d="M318.718,225.727
			c11.639,0,23.278,0,34.917,0"/>
	</g>
</g>
<g id="Sing_1">
	<g>
		<g>
			<rect x="122.265" y="211.93" style="fill:#263238;" width="12.429" height="242.467"/>
			<rect x="122.265" y="211.93" style="opacity:0.5;fill:#FFFFFF;enable-background:new    ;" width="12.429" height="242.467"/>
		</g>
		<rect x="122.265" y="215.61" style="opacity:0.3;" width="12.429" height="8.631"/>
		<g>
			<path style="fill:#407BFF;" d="M186.057,218.868c-0.404-0.156-112.126,0.358-112.412-0.072
				c-21.818-26.047-26.634-15.83,0.742-39.505c0.829-0.004,111.636-0.788,112.134,0.239
				C186.05,179.93,187.388,219.066,186.057,218.868z"/>
			<path style="opacity:0.3;" d="M186.057,218.868c-0.404-0.156-112.126,0.358-112.412-0.072
				c-21.818-26.047-26.634-15.83,0.742-39.505c0.829-0.004,111.636-0.788,112.134,0.239
				C186.05,179.93,187.388,219.066,186.057,218.868z"/>
			<path style="fill:#407BFF;" d="M186.057,215.978c-0.43-0.168-111.368,0.299-111.67-0.149c-0.001,0-18.725-20.023-18.725-20.023
				c-0.729-0.633,18.713-20.034,18.724-20.52c0.782-0.013,111.698-0.793,112.134,0.247
				C186.088,175.924,187.358,216.181,186.057,215.978z"/>
			<g>
				<g>
					<path style="fill:#263238;" d="M179.607,179.78c-0.03,2.021,3.145,2.021,3.115,0
						C182.752,177.759,179.577,177.759,179.607,179.78z"/>
					<path style="opacity:0.5;fill:#FFFFFF;enable-background:new    ;" d="M179.607,179.78c-0.03,2.021,3.145,2.021,3.115,0
						C182.752,177.759,179.577,177.759,179.607,179.78z"/>
				</g>
				<g>
					<path style="fill:#263238;" d="M179.607,210.602c-0.03,2.021,3.145,2.021,3.115,0
						C182.752,208.581,179.577,208.581,179.607,210.602z"/>
					<path style="opacity:0.5;fill:#FFFFFF;enable-background:new    ;" d="M179.607,210.602c-0.03,2.021,3.145,2.021,3.115,0
						C182.752,208.581,179.577,208.581,179.607,210.602z"/>
				</g>
			</g>
			<g>
				<g>
					<path style="fill:#263238;" d="M75.496,179.78c-0.03,2.021,3.145,2.021,3.115,0C78.641,177.759,75.466,177.759,75.496,179.78z"
						/>
					<path style="opacity:0.5;fill:#FFFFFF;enable-background:new    ;" d="M75.496,179.78c-0.03,2.021,3.145,2.021,3.115,0
						C78.641,177.759,75.466,177.759,75.496,179.78z"/>
				</g>
				<g>
					<path style="fill:#263238;" d="M75.496,210.602c-0.03,2.021,3.145,2.021,3.115,0C78.641,208.581,75.466,208.581,75.496,210.602
						z"/>
					<path style="opacity:0.5;fill:#FFFFFF;enable-background:new    ;" d="M75.496,210.602c-0.03,2.021,3.145,2.021,3.115,0
						C78.641,208.581,75.466,208.581,75.496,210.602z"/>
				</g>
			</g>
		</g>
		<g>
			<path style="fill:#FFFFFF;" d="M99.948,191.559v2.461h5.988v3.65h-5.988v4.594h-4.84v-14.355h11.669v3.65H99.948z"/>
			<path style="fill:#FFFFFF;" d="M117.581,199.762h-5.455l-0.964,2.502h-4.922l6.275-14.355h4.758l6.275,14.355h-5.004
				L117.581,199.762z M116.248,196.276l-1.395-3.609l-1.395,3.609H116.248z"/>
			<path style="fill:#FFFFFF;" d="M124.323,187.909h4.84v10.602h6.48v3.753h-11.32V187.909z"/>
			<path style="fill:#FFFFFF;" d="M136.07,201.116l1.559-3.527c1.354,0.8,3.158,1.313,4.737,1.313c1.374,0,1.866-0.287,1.866-0.779
				c0-1.805-7.937-0.349-7.937-5.701c0-2.666,2.235-4.84,6.686-4.84c1.928,0,3.917,0.41,5.414,1.251l-1.456,3.507
				c-1.415-0.718-2.748-1.066-3.999-1.066c-1.415,0-1.866,0.41-1.866,0.902c0,1.723,7.937,0.287,7.937,5.578
				c0,2.625-2.235,4.84-6.686,4.84C139.925,202.592,137.505,201.998,136.07,201.116z"/>
			<path style="fill:#FFFFFF;" d="M162.377,198.614v3.65h-11.936v-14.355h11.669v3.65H155.2v1.682h6.07v3.486h-6.07v1.887H162.377z"
				/>
		</g>
		<path style="opacity:0.2;fill:#FFFFFF;" d="M98.113,175.141c0,0,10.109,5.197,20.352,11.418
			c8.238,5.003,25.661,17.412,18.508,22.527c-7.153,5.115-8.915,6.962-8.493,6.943c0.423-0.019,13.812,0,13.812,0
			s4.952-8.487,0-15.336c-4.952-6.849-15.591-13.053-17.24-19.355c-1.649-6.303,3.429-6.344,3.429-6.344L98.113,175.141z"/>
		<polygon style="opacity:0.2;fill:#FFFFFF;" points="134.694,268.673 122.265,285.368 122.265,300.243 134.694,283.63 		"/>
		<polygon style="opacity:0.2;fill:#FFFFFF;" points="134.694,297.172 122.265,313.867 122.265,319.434 134.694,303.301 		"/>
		<path style="fill:none;stroke:#407BFF;stroke-linecap:round;stroke-linejoin:round;stroke-miterlimit:10;" d="M125.826,171.88
			c15.161,0,30.322,0,45.483,0"/>
	</g>
</g>
<g id="Plants">
	<g>
		<path style="fill:#263238;" d="M389.32,438.928c2.641-8.894,2.78-18.517,0.397-27.484c-3.759,9.365-9.121,18.083-15.783,25.662
			c-1.315-12.216-3.546-24.334-6.67-36.217c-4.854,12.248-6.877,25.609-5.866,38.745c-7.387-7.278-15.381-13.94-23.872-19.893
			c0.738,11.294,7.416,26.035,22.283,34.386l23.699,0.069c13.126-3.534,22.991-16.684,22.713-30.275
			C402.458,430.609,396.407,435.982,389.32,438.928z"/>
	</g>
	<g>
		<g>
			<path style="fill:#407BFF;" d="M110.249,431.608c-0.695-1.167-2.243-2.603-3.328-3.42c-1.085-0.817-2.573-1.225-3.83-0.71
				c-1.605,0.657-2.344,2.626-2.121,4.345c0.224,1.72,1.044,3.893,2.022,5.325c4.174,6.111,8.037,11.704,14.479,16.251
				C117.471,445.809,114.102,438.082,110.249,431.608z"/>
		</g>
		<g>
			<path style="fill:#407BFF;" d="M131.5,432.66c-1.441-0.789-4.122,0.33-5.437,1.315c-2.607,1.954-4.196,4-5.785,6.844
				c-2.018,3.611-2.252,8.683-2.508,11.904c5.101-4.141,10.297-8.387,13.79-13.952c0.61-0.971,1.175-2.014,1.285-3.156
				C132.954,434.474,132.505,433.211,131.5,432.66z"/>
		</g>
		<path style="fill:none;stroke:#263238;stroke-width:0.5;stroke-linecap:round;stroke-linejoin:round;stroke-miterlimit:10;" d="
			M111.834,440.5c3.015,4.86,5.19,10.24,6.4,15.83"/>
		<path style="fill:none;stroke:#263238;stroke-width:0.5;stroke-linecap:round;stroke-linejoin:round;stroke-miterlimit:10;" d="
			M123.446,442.971c-2.535,3.039-4.536,6.522-5.885,10.242"/>
	</g>
</g>
<g id="Speech_Bubble">
	<g>
		<g>
			<path style="fill:#407BFF;" d="M214.054,78.717c6.517-3.124,8.85-12.18,5.621-18.645c-3.23-6.465-10.838-10.042-18.057-9.683
				c-7.218,0.359-13.944,4.147-19.097,9.214c-5.162-6.341-15.574-7.493-21.997-2.435c-6.315,4.973-5.262,15.162-0.519,21.686
				c-5.558,2.712-9.257,9.348-7.897,15.48c1.675,7.55,10.624,12.56,17.936,10.04c-0.016,9.778,8.729,18.731,18.504,18.945
				c9.775,0.214,18.904-8.347,19.316-18.117c7.458,3.46,17.501-1.434,19.372-9.439C229.108,87.758,222.273,78.92,214.054,78.717z"/>
		</g>
		<path style="fill:#407BFF;" d="M220.957,117.461c0,2.293-1.859,4.153-4.153,4.153c-2.294,0-4.153-1.859-4.153-4.153
			c0-2.294,1.859-4.153,4.153-4.153C219.098,113.309,220.957,115.168,220.957,117.461z"/>
		<g style="opacity:0.8;">
			<path style="fill:#FFFFFF;" d="M214.054,78.717c6.517-3.124,8.85-12.18,5.621-18.645c-3.23-6.465-10.838-10.042-18.057-9.683
				c-7.218,0.359-13.944,4.147-19.097,9.214c-5.162-6.341-15.574-7.493-21.997-2.435c-6.315,4.973-5.262,15.162-0.519,21.686
				c-5.558,2.712-9.257,9.348-7.897,15.48c1.675,7.55,10.624,12.56,17.936,10.04c-0.016,9.778,8.729,18.731,18.504,18.945
				c9.775,0.214,18.904-8.347,19.316-18.117c7.458,3.46,17.501-1.434,19.372-9.439C229.108,87.758,222.273,78.92,214.054,78.717z"/>
		</g>
		<path style="opacity:0.8;fill:#FFFFFF;" d="M220.957,117.461c0,2.293-1.859,4.153-4.153,4.153c-2.294,0-4.153-1.859-4.153-4.153
			c0-2.294,1.859-4.153,4.153-4.153C219.098,113.309,220.957,115.168,220.957,117.461z"/>
		<g>
			<path style="fill:#407BFF;" d="M188.636,88.066c0.58-0.985,1.425-2.072,2.536-3.261c0.815-0.87,1.412-1.602,1.794-2.196
				c0.383-0.594,0.574-1.268,0.574-2.023c0-1.071-0.364-1.92-1.092-2.543s-1.696-0.935-2.905-0.935c-1.161,0-2.191,0.283-3.09,0.848
				c-0.901,0.564-1.659,1.355-2.276,2.369l-4.478-3.087c1.037-1.855,2.436-3.291,4.201-4.305c1.763-1.015,3.855-1.522,6.273-1.522
				c2.837,0,5.113,0.711,6.828,2.131c1.714,1.42,2.572,3.391,2.572,5.914c0,1.189-0.167,2.232-0.5,3.13
				c-0.333,0.898-0.74,1.66-1.221,2.282c-0.48,0.623-1.104,1.341-1.868,2.153c-0.913,0.956-1.579,1.761-1.998,2.413
				c-0.42,0.652-0.63,1.442-0.63,2.37h-5.587C187.767,90.298,188.057,89.052,188.636,88.066z M188.045,101.245
				c-0.679-0.687-1.019-1.524-1.019-2.511c0-0.986,0.333-1.81,0.999-2.472c0.666-0.661,1.518-0.993,2.553-0.993
				c1.037,0,1.887,0.332,2.553,0.993c0.666,0.662,0.999,1.486,0.999,2.472c0,0.987-0.338,1.824-1.017,2.511
				c-0.679,0.688-1.523,1.031-2.536,1.031C189.568,102.276,188.723,101.933,188.045,101.245z"/>
		</g>
	</g>
</g>
<g id="Character">
	<g>
		<g>
			<path style="fill:#FDBBB5;" d="M255.618,157.645c-6.454,0.003-12.588-2.851-16.798-7.814c5.312-4.657,4.7-17.986,3.734-25.332
				l2.279,2.198l10.706,10.369c-0.576,1.674-0.95,3.413-1.113,5.178c-0.216,3.766,1.21,7.143,6.654,8.742
				C262.367,153.462,261.803,157.827,255.618,157.645z"/>
			<path style="opacity:0.2;enable-background:new    ;" d="M255.539,137.066c-0.576,1.674-0.95,3.413-1.113,5.178
				c-5.571,1.989-10.557-3.839-10.929-10.052c-0.129-2.157,0.998-4.247,1.28-5.477L255.539,137.066z"/>
			<path style="fill:#263238;" d="M269.264,109.662c1.294,3.803,0.87,11.696-4.481,9.283
				C259.433,116.532,267.04,103.159,269.264,109.662z"/>
			<path style="fill:#FDBBB5;" d="M242.194,115.63c-0.291,9.877-0.97,15.649,3.466,21.092c6.681,8.249,19.074,4.715,22.283-4.894
				c2.883-8.651,2.871-23.344-6.244-28.052c-6.616-3.405-14.7-0.723-18.056,5.99C242.734,111.586,242.239,113.59,242.194,115.63z"/>
			<path style="opacity:0.2;enable-background:new    ;" d="M258.685,140.816c-0.406-0.061-1.787-1.102-1.521-3.149
				s5.703-6.935,7.981-6.656c2.278,0.279,0.642,3.361,0.642,3.361s-5.364,5.808-5.647,5.924S258.685,140.816,258.685,140.816z"/>
			<path style="fill:#263238;" d="M265.591,111.981c6.775-0.417,11.899-7.502,3.455-13.579c-1.981-1.318-4.17-2.282-6.472-2.849
				c0,0,1.761,2.562-0.031,4.477c-1.652-4.063-5.743-6.538-10.051-6.079c1.137,2.124-0.302,6.601-3.539,5.285
				c-4.912-1.978-12.059-0.874-11.349,5.289c-6.312,3.405-2.996,13.407,5.735,18.109c4.6-3.95,3.794-13.153,3.794-13.153
				C251.77,111.388,259.463,112.286,265.591,111.981z"/>
			<path style="fill:#263238;" d="M238.931,105.308c0,0-3.885-2.402-0.798-5.725C233.928,100.867,235.155,104.256,238.931,105.308z"
				/>
			<path style="fill:#263238;" d="M239.502,106.298c0,0-3.505-2.945-5.625,1.097C233.727,102.973,237.302,103.041,239.502,106.298z"
				/>
			<path style="fill:#FDBBB5;" d="M237.727,123.469c0.529,2.417,1.986,4.52,4.048,5.842c2.749,1.722,5.059-0.571,5.057-3.689
				c0.017-2.801-1.408-7.131-4.548-7.544c-2.34-0.244-4.432,1.484-4.673,3.858C237.559,122.45,237.598,122.969,237.727,123.469z"/>
			<g>
				<g>
					<path style="fill:#263238;" d="M254.583,119.867c-0.096,1.012,0.357,1.879,1.011,1.936c0.654,0.057,1.261-0.718,1.356-1.73
						c0.096-1.012-0.357-1.879-1.011-1.936C255.286,118.08,254.678,118.854,254.583,119.867z"/>
					<path style="fill:#263238;" d="M264.815,121.229c-0.096,1.012,0.357,1.879,1.01,1.936c0.654,0.057,1.261-0.717,1.357-1.73
						c0.096-1.012-0.357-1.879-1.01-1.936C265.517,119.442,264.91,120.217,264.815,121.229z"/>
					<path style="fill:#F7776A;" d="M262.884,120.337c0,0,2.683,5.336,3.502,7.483c-1.509,1.138-3.845,0.319-3.845,0.319
						L262.884,120.337z"/>
					<path style="fill:#263238;" d="M253.484,116.653c0.126,0.106,0.303,0.143,0.469,0.081c1.97-0.739,3.376,0.28,3.391,0.29
						c0.209,0.155,0.504,0.11,0.659-0.1c0.155-0.21,0.109-0.507-0.098-0.662c-0.074-0.055-1.835-1.332-4.28-0.415
						c-0.244,0.092-0.368,0.365-0.278,0.609C253.376,116.536,253.424,116.602,253.484,116.653z"/>
				</g>
				<path style="fill:#263238;" d="M270.894,115.997c0.086-0.025,0.165-0.075,0.228-0.15c0.168-0.201,0.147-0.502-0.049-0.673
					c-1.962-1.711-4.03-1.091-4.126-1.076c-0.248,0.076-0.391,0.341-0.319,0.594c0.072,0.252,0.329,0.395,0.575,0.322
					c0.085-0.03,1.684-0.486,3.259,0.887C270.586,116.011,270.749,116.04,270.894,115.997z"/>
			</g>
			<g style="opacity:0.2;">
				<g>
					<path d="M240.157,120.817c1.297-0.576,2.672,0.122,3.349,1.282c0.335,0.574,0.515,1.239,0.567,1.899
						c0.052,0.653,0.005,1.319-0.406,1.856c-0.124,0.162-0.024,0.418,0.135,0.513c0.192,0.115,0.391,0.025,0.513-0.135
						c0.493-0.644,0.573-1.499,0.505-2.283c-0.073-0.839-0.304-1.683-0.767-2.394c-0.94-1.444-2.665-2.1-4.274-1.386
						C239.338,120.365,239.719,121.012,240.157,120.817L240.157,120.817z"/>
				</g>
			</g>
			<g>
				<g>
					<path style="fill:#263238;" d="M260.811,131.234c0.25-0.196,0.531-0.331,0.838-0.397c0.11-0.023,0.195-0.026,0.314-0.03
						c-0.013,0-0.045-0.011-0.016-0.002c0.013,0.004,0.026,0.006,0.039,0.009c0.006,0.001,0.04,0.015,0.012,0.003
						c-0.028-0.012,0.007,0.005,0.012,0.008c0.019,0.011,0.029,0.022,0.007,0.002c0.01,0.009,0.019,0.018,0.028,0.028
						c-0.022-0.023,0.001,0.002,0.009,0.015c0.01,0.017,0.018,0.035,0.027,0.054c0.049,0.111,0.211,0.137,0.308,0.081
						c0.115-0.067,0.13-0.196,0.081-0.308c-0.071-0.16-0.216-0.282-0.387-0.322c-0.157-0.037-0.318-0.013-0.474,0.014
						c-0.414,0.071-0.788,0.271-1.116,0.528c-0.096,0.075-0.079,0.239,0,0.318C260.588,131.329,260.716,131.31,260.811,131.234
						L260.811,131.234z"/>
				</g>
			</g>
		</g>
		<g>
			<polygon style="fill:#263238;" points="199.25,447.575 208.496,450.901 218.719,430.097 205.498,425.439 			"/>
			<polygon style="opacity:0.5;fill:#FFFFFF;enable-background:new    ;" points="199.25,447.575 208.496,450.901 218.719,430.097 
				205.498,425.439 			"/>
			<polygon style="fill:#263238;" points="272.998,448.916 282.79,448.3 284.16,425.095 270.198,426.067 			"/>
			<polygon style="opacity:0.5;fill:#FFFFFF;enable-background:new    ;" points="272.998,448.916 282.79,448.3 284.16,425.095 
				270.198,426.067 			"/>
			<path style="fill:#263238;" d="M208.48,448.018l-10.657-1.738c-0.395-0.057-0.779,0.163-0.935,0.536l-3.387,8.407
				c-0.3,0.735,0.044,1.578,0.768,1.883c0.125,0.052,0.257,0.087,0.391,0.101c3.839,0.547,9.409,1.225,14.216,2.027
				c5.609,0.916,9.252,1.115,15.843,2.186c3.996,0.657,5.782-3.235,4.164-3.873c-7.31-2.919-12.317-3.211-18.193-8.413
				C210.069,448.562,209.304,448.176,208.48,448.018z"/>
			<path style="fill:#407BFF;" d="M209.089,449.312c-0.001-0.099,0.064-0.185,0.158-0.21c0.482-0.164,4.716-1.539,5.822-0.625
				c0.204,0.161,0.309,0.419,0.279,0.68c-0.04,0.43-0.267,0.819-0.62,1.061c-1.225,0.771-3.95-0.054-5.462-0.633l0,0
				C209.144,449.56,209.064,449.438,209.089,449.312C209.089,449.313,209.089,449.313,209.089,449.312z M210.061,449.334
				c2.082,0.704,3.693,0.876,4.385,0.436c0.237-0.154,0.385-0.415,0.398-0.7c0.025-0.105-0.016-0.216-0.105-0.277l-0.084-0.012
				C213.979,448.38,211.721,448.843,210.061,449.334L210.061,449.334z"/>
			<path style="fill:#407BFF;" d="M209.152,449.481c-0.063-0.056-0.085-0.147-0.055-0.226c0.334-1.371,1.081-2.602,2.137-3.522
				c0.397-0.254,0.88-0.327,1.333-0.203c0.621,0.176,0.758,0.53,0.751,0.791c-0.001,1.149-2.68,2.892-3.945,3.221
				c-0.057,0.013-0.117,0.005-0.169-0.024L209.152,449.481z M212.502,446.001c-0.331-0.095-0.686-0.045-0.98,0.137
				c-0.87,0.732-1.504,1.71-1.823,2.81c1.32-0.525,3.136-1.939,3.229-2.61c0,0,0.02-0.143-0.181-0.244
				c-0.093-0.052-0.196-0.087-0.301-0.101L212.502,446.001z"/>
			<path style="fill:#263238;" d="M281.825,446.614l-10.742,0.445c-0.399,0.024-0.732,0.317-0.811,0.714l-1.657,8.922
				c-0.15,0.781,0.352,1.538,1.122,1.69c0.133,0.026,0.268,0.033,0.403,0.02c3.869-0.238,9.461-0.698,14.329-0.882
				c5.676-0.234,9.286-0.774,15.955-1.055c4.045-0.162,5.033-4.337,3.336-4.637c-7.75-1.385-12.7-0.661-19.492-4.574
				C283.53,446.812,282.683,446.589,281.825,446.614z"/>
			<path style="fill:#407BFF;" d="M282.676,447.76c-0.02-0.096,0.027-0.194,0.114-0.238c0.44-0.258,4.32-2.46,5.583-1.787
				c0.231,0.117,0.386,0.349,0.406,0.61c0.069,0.432-0.081,0.87-0.4,1.165c-1.05,1.003-3.868,0.743-5.462,0.481l0,0
				C282.798,447.97,282.703,447.879,282.676,447.76z M283.633,447.586c2.178,0.27,3.805,0.112,4.383-0.457
				c0.213-0.191,0.31-0.483,0.253-0.766c0.003-0.105-0.052-0.202-0.143-0.251l-0.085,0.005
				C287.285,445.86,285.206,446.767,283.633,447.586L283.633,447.586z"/>
			<path style="fill:#407BFF;" d="M282.771,447.913c-0.068-0.047-0.105-0.128-0.098-0.21c0.058-1.411,0.549-2.768,1.404-3.883
				c0.344-0.33,0.808-0.5,1.281-0.469c0.643,0.047,0.833,0.367,0.891,0.624c0.21,1.128-2.074,3.376-3.235,3.952
				c-0.059,0.024-0.123,0.029-0.184,0.011L282.771,447.913z M285.371,443.827c-0.348-0.026-0.69,0.094-0.947,0.333
				c-0.719,0.887-1.15,1.977-1.236,3.122c1.191-0.781,2.694-2.533,2.653-3.209c0,0-0.009-0.144-0.225-0.203L285.371,443.827z"/>
			<path style="fill:#263238;" d="M285.798,437.73l-18.74,1.348c0,0-4.593-55.868-6.87-86.805
				c-1.182-12.311-3.063-24.543-5.634-36.634c-3.533-17.696-8.049-36.832-11.748-51.818c-3.903-15.782-6.907-27-6.907-27
				l36.748-0.694c0,0,12.95,76.952,14.591,107.236C288.892,375.059,285.798,437.73,285.798,437.73z"/>
			<path style="opacity:0.2;enable-background:new    ;" d="M254.554,315.639c-3.533-17.696-8.049-36.832-11.748-51.818l3.732-7.765
				C254.799,266.446,256.479,298.344,254.554,315.639z"/>
			<path style="fill:#263238;" d="M219.859,228.844c0,0-4.629,14.416-2.82,44.661l18.482,5.762l12.79-20.433l24.489-0.844
				l-0.171-14.869l0.379-8.053L219.859,228.844z"/>
			<path style="fill:#263238;" d="M251.72,235.904c0,0-5.851,86.044-9.508,115.037c-4.004,31.757-25.248,92.031-25.248,92.031
				l-19.804-2.823c0,0,14.905-55.004,16.891-86.738c1.698-27.025,3.024-79.793,3.557-103.455
				c0.123-6.779,5.372-12.318,12.043-12.708L251.72,235.904z"/>
			<g style="opacity:0.2;">
				<g>
					<path d="M221.346,249.063c6.019-1.052,11.149-5.444,13.289-11.14c0.17-0.452-0.555-0.648-0.723-0.199
						c-2.052,5.462-7.014,9.611-12.765,10.616C220.673,248.423,220.874,249.146,221.346,249.063L221.346,249.063z"/>
				</g>
			</g>
			<g style="opacity:0.2;">
				<g>
					<path d="M273.401,249.339c-2.744-1.84-4.965-4.455-6.23-7.516c-0.182-0.44-0.908-0.247-0.723,0.199
						c1.345,3.254,3.654,6.006,6.575,7.965C273.425,250.256,273.801,249.607,273.401,249.339L273.401,249.339z"/>
				</g>
			</g>
		</g>
		<g>
			<path style="fill:#407BFF;" d="M270.171,152.448l1.62,25.223l-0.753,8.246c1.778,1.673,3.64,3.251,5.579,4.73
				c7.427,4.79,10.071,5.444,13.83,5.886l0.473-1.218c0,0-4.143-11.191-11.042-25.872
				C279.865,169.481,274.016,153.054,270.171,152.448z"/>
			<path style="opacity:0.5;fill:#FFFFFF;enable-background:new    ;" d="M270.171,152.448l1.62,25.223l-0.753,8.246
				c1.778,1.673,3.64,3.251,5.579,4.73c7.427,4.79,10.071,5.444,13.83,5.886l0.473-1.218c0,0-4.143-11.191-11.042-25.872
				C279.865,169.481,274.016,153.054,270.171,152.448z"/>
			<path style="opacity:0.2;enable-background:new    ;" d="M271.791,177.671l-0.753,8.246c1.778,1.673,3.64,3.251,5.579,4.73
				c1.32-7.47-3.918-14.521-3.918-14.521C272.321,176.592,272.016,177.113,271.791,177.671z"/>
			<path style="fill:#407BFF;" d="M221.104,151.182c1.477,11.018,2.142,22.132,1.989,33.25c-0.062,7.77-0.517,15.145-0.971,21.813
				c-1.186,15.619-4.109,24.588-4.165,28.648l55.486,2.236c3.346-38.783-1.881-83.956-1.881-83.956
				c-4.015-1.286-3.624-0.978-7.766-1.747c-0.878-0.177-1.768-0.31-2.672-0.442c-7.411-0.82-14.863-1.204-22.318-1.152
				c-1.423,0.001-2.843,0.031-4.262,0.089C227.462,150.213,221.104,151.182,221.104,151.182z"/>
			<path style="opacity:0.5;fill:#FFFFFF;enable-background:new    ;" d="M221.104,151.182c1.477,11.018,2.142,22.132,1.989,33.25
				c-0.062,7.77-0.517,15.145-0.971,21.813c-1.186,15.619-4.109,24.588-4.165,28.648l55.486,2.236
				c3.346-38.783-1.881-83.956-1.881-83.956c-4.015-1.286-3.624-0.978-7.766-1.747c-0.878-0.177-1.768-0.31-2.672-0.442
				c-7.411-0.82-14.863-1.204-22.318-1.152c-1.423,0.001-2.843,0.031-4.262,0.089C227.462,150.213,221.104,151.182,221.104,151.182z
				"/>
			<path style="fill:#407BFF;" d="M236.554,149.873l4.81-5.446c0.048-0.144,11.974,6.577,11.974,6.577
				c0.243-0.002,2.227-4.578,2.227-4.578l8.223,5.015c0,0-5.361,8.486-5.625,8.581c-0.265,0.095-10.049-0.903-10.049-0.903
				L236.554,149.873z"/>
			<path style="opacity:0.5;fill:#FFFFFF;enable-background:new    ;" d="M236.564,149.873l4.81-5.446
				c0.048-0.144,11.974,6.577,11.974,6.577c0.243-0.002,2.227-4.578,2.227-4.578l8.223,5.015c0,0-5.361,8.486-5.626,8.581
				c-0.265,0.095-10.049-0.903-10.049-0.903L236.564,149.873z"/>
			<path style="fill:#407BFF;" d="M256.706,159.17c1.313,4.979,6.35,55.252,7.52,68.088l-5.926,6.821l-5.922-6.979
				c-0.105-12.298,2.599-61.332,1.293-67.661L256.706,159.17z"/>
			<polygon style="fill:#407BFF;" points="253.963,160.101 256.683,159.938 257.477,155.818 253.299,152.901 250.723,157.091 			"/>
			<path style="opacity:0.2;enable-background:new    ;" d="M236.564,149.873c0,0,11.997,12.077,12.041,11.934
				c0.044-0.143,4.694-8.906,4.694-8.906l-4.454,6.63L236.564,149.873z"/>
			<polygon style="opacity:0.2;enable-background:new    ;" points="253.299,152.901 260.288,157.576 263.797,151.441 
				260.501,159.102 			"/>
			<g style="opacity:0.2;">
				<g>
					<path d="M274.309,188.873c-0.146-8.2-0.516-16.395-0.662-24.596c-0.009-0.482-0.759-0.484-0.75,0
						c0.146,8.2,0.516,16.395,0.662,24.596C273.567,189.355,274.317,189.357,274.309,188.873L274.309,188.873z"/>
				</g>
			</g>
			<path style="opacity:0.3;" d="M222.931,191.6c0,0,7.551,14.393,14.414,16.707c6.863,2.314,37.215-0.758,37.215-0.758l0.059-5.714
				l-33.882-1.957c0,0-18.018-19.131-17.763-19.007C223.228,180.995,222.931,191.6,222.931,191.6z"/>
			<path style="opacity:0.2;enable-background:new    ;" d="M281.559,194.633l11.176-1.969l0.409-1.094c0,0-0.348-2.125-5.695-0.705
				c-5.348,1.42-6.561,2.863-6.561,2.863C281.057,194.07,281.286,194.368,281.559,194.633z"/>
			<g style="opacity:0.2;">
				<g>
					<path d="M224.179,153.585c4.649,2.335,6.375,7.693,8.417,12.109c2.417,5.227,4.79,10.475,7.144,15.731
						c0.712,1.591,1.441,3.178,2.119,4.784c0.187,0.443,0.833,0.061,0.648-0.378c-3.769-8.931-7.826-17.815-12.093-26.518
						c-1.308-2.668-3.137-5.01-5.856-6.376C224.127,152.722,223.747,153.368,224.179,153.585L224.179,153.585z"/>
				</g>
			</g>
			<g>
				<path style="fill:#FDBBB5;" d="M293.431,187.956c-0.766-5.809-4.643-11.366-6.78-16.496
					c-4.105-9.208-9.067-17.431-12.403-26.328c-0.604-1.61-2.665-2.113-4.282-1.586c-1.953,0.637-3.027,2.759-2.399,4.74
					c2.012,6.258,5.323,13.838,6.99,21.773l6.332,23.668c1.258,2.545,7.42,4.556,10.592,0.941
					C293.038,192.814,293.747,190.374,293.431,187.956z M280.076,188.673c0.006,0.067,0.02,0.133,0.025,0.2
					C280.082,188.866,280.075,188.774,280.076,188.673z"/>
				<path style="fill:#FDBBB5;" d="M268.035,131.558l3.202,1.82c1.2,0.697,1.998,1.937,2.145,3.332l0.681,6.507
					c0.273,2.609-0.717,5.191-2.655,6.927l-1.189,1.074c-5.492-2.667-9.536-9.671-9.536-9.671l-1.365-1.878
					c-1.212-1.567-0.942-3.833,0.602-5.063c0.009-0.008,0.019-0.015,0.029-0.022l3.621-2.792
					C264.88,130.824,266.632,130.732,268.035,131.558z"/>
			</g>
			<g>
				<g>
					<path style="fill:#FDBBB5;" d="M295.155,198.236c-0.005-0.015-0.011-0.03-0.016-0.046l-1.593-4.275
						c-0.007-0.017-0.013-0.034-0.02-0.05c-0.742-1.844-2.816-2.728-4.633-1.975l-2.139,0.799c0,0-4.052,1.042-7.823,3.374
						c-5.81-0.102-11.694-0.31-17.41-0.658c-4.55-0.239-9.075-0.83-13.536-1.767c-1.56-0.279-3.045-0.883-4.362-1.776
						c-4.359-6.988-11.421-21.915-15.516-29.866l0.064,0.018c-4.642-8.68-17.272-2.4-13.376,6.631
						c5.411,11.167,10.868,22.32,18.679,32.089c6.55,7.157,19.463,6.156,28.139,5.798c5.723-0.444,11.41-1.261,17.037-2.403
						c0.032,0.02,0.06,0.046,0.093,0.066c1.369,0.828,3.055,0.919,4.561,0.391l5.671-1.988c0.187,0.259,1.902,1.572,3.281,0.737
						l0.205-0.061C294.576,202.639,295.892,200.346,295.155,198.236z"/>
					<path style="fill:#407BFF;" d="M228.518,195.994l13.031-8.046l-8.258-22.369c0,0-6.363-17.707-13.294-13.984
						C207.811,158.169,213.913,174.71,228.518,195.994z"/>
					<path style="opacity:0.5;fill:#FFFFFF;enable-background:new    ;" d="M228.518,195.994l13.031-8.046l-8.258-22.369
						c0,0-6.363-17.707-13.294-13.984C207.811,158.169,213.913,174.71,228.518,195.994z"/>
					<polygon style="fill:#407BFF;" points="243.19,185.431 225.122,196.978 231.183,201.897 245.515,189.892 					"/>
					<polygon style="opacity:0.3;fill:#FFFFFF;enable-background:new    ;" points="243.19,185.431 225.122,196.978 
						231.183,201.897 245.515,189.892 					"/>
				</g>
				<path style="opacity:0.2;enable-background:new    ;" d="M289.032,202.576c0,0,3.2-1.381,3.086-1.32
					c-0.113,0.06-2.238,1.986-2.238,1.986S289.189,202.998,289.032,202.576z"/>
			</g>
		</g>
	</g>
</g>
</svg>
